# xmcd
#
# Track frame offsets:
# 150
# 30593
# 52833
# 76383
# 101058
# 122376
# 150383
# 174711
# 198208
# 223708
# 249873
#
# Disc length: 3641 seconds
#
# Revision: 0
# Processed by: cddbd v1.5.1PL0 Copyright (c) Steve Scherf et al.
# Submitted via: Audion 3.0.2 (http://www.panic.com/audion/)
#
DISCID=800e370b
DTITLE=Sound of Africa - Soukous Fever
DYEAR=1900
DGENRE=
TTITLE0=Dansez
TTITLE1=la fete
TTITLE2=Ras 100
TTITLE3=Wapiyo
TTITLE4=Verite
TTITLE5=iye
TTITLE6=Laisse passe
TTITLE7=Homage aux freres
TTITLE8=Ok madam
TTITLE9=Amadeus
TTITLE10=Matti
EXTD=
EXTT0=
EXTT1=
EXTT2=
EXTT3=
EXTT4=
EXTT5=
EXTT6=
EXTT7=
EXTT8=
EXTT9=
EXTT10=
PLAYORDER=
